<svg width="59" height="55" viewBox="0 0 59 55" fill="none" xmlns="http://www.w3.org/2000/svg">
<ellipse cx="29.3943" cy="27.5" rx="29.3943" ry="27.5" fill="#007CED"/>
<path d="M19.148 45.062C18.8333 45.062 18.5777 45.003 18.381 44.885C18.2237 44.767 18.0073 44.708 17.732 44.708L17.673 44.767C17.673 44.767 17.6337 44.767 17.555 44.767C17.5157 44.8063 17.378 44.767 17.142 44.649L16.67 44.472L16.611 44.531C16.611 44.5703 16.5913 44.59 16.552 44.59C16.6307 44.59 16.4733 44.4917 16.08 44.295C15.8833 44.295 15.6473 44.2163 15.372 44.059L14.546 43.351C14.4673 43.3117 14.3493 43.2723 14.192 43.233C14.074 43.1937 13.9363 43.1543 13.779 43.115C13.5823 42.997 13.3267 42.82 13.012 42.584C12.7367 42.348 12.4417 42.0333 12.127 41.64L12.068 41.227L11.773 40.814L11.655 39.988C11.6157 39.8307 11.537 39.6537 11.419 39.457C11.3403 39.221 11.2617 38.9653 11.183 38.69C11.065 38.6507 10.9077 38.4933 10.711 38.218C10.475 37.6673 10.357 37.2937 10.357 37.097C10.357 37.0577 10.3963 36.9987 10.475 36.92C10.5537 36.802 10.6127 36.743 10.652 36.743C10.5733 36.625 10.3767 36.4677 10.062 36.271L10.003 35.622C10.2783 35.4253 10.4553 35.327 10.534 35.327H10.947C11.065 35.2877 11.2027 35.2483 11.36 35.209C11.5173 35.1697 11.6943 35.1303 11.891 35.091C12.0877 35.0123 12.245 35.0713 12.363 35.268C12.4023 35.4253 12.5203 35.504 12.717 35.504C12.7563 35.504 12.8547 35.3663 13.012 35.091L13.543 34.383C14.133 34.5797 14.487 34.6583 14.605 34.619L15.549 33.97H16.139V34.619L16.67 34.855L16.552 35.74C16.552 35.8187 16.611 35.917 16.729 36.035C16.847 36.153 16.906 36.2317 16.906 36.271C16.9453 36.3103 16.9257 36.4087 16.847 36.566L16.67 36.861C16.7487 37.1757 16.9257 37.451 17.201 37.687C17.2797 37.687 17.437 37.7263 17.673 37.805C17.673 37.9623 17.732 38.1 17.85 38.218C18.0073 38.336 18.1647 38.3557 18.322 38.277C18.322 38.277 18.3613 38.454 18.44 38.808C18.5187 39.0047 18.5973 39.103 18.676 39.103C18.676 39.103 18.7547 39.0637 18.912 38.985C18.9907 38.9063 19.0693 38.867 19.148 38.867L19.443 38.926C19.5217 38.926 19.5807 38.9457 19.62 38.985C19.6593 39.0243 19.6987 39.044 19.738 39.044C19.7773 39.044 19.856 38.985 19.974 38.867C20.1313 38.7883 20.2297 38.749 20.269 38.749C20.3083 38.7097 20.446 38.7293 20.682 38.808L21.036 38.926C21.036 38.926 21.1147 38.8867 21.272 38.808L21.449 38.749C21.449 38.749 21.567 38.7883 21.803 38.867C21.8817 38.7883 21.921 38.7097 21.921 38.631C21.921 38.3163 21.98 37.9033 22.098 37.392L22.629 37.333C22.8257 37.333 22.9437 37.2543 22.983 37.097C22.9437 37.0577 22.8847 36.9987 22.806 36.92C22.7273 36.8413 22.6487 36.7627 22.57 36.684C22.5307 36.5267 22.4913 36.3693 22.452 36.212C22.4127 36.0153 22.3733 35.8187 22.334 35.622C22.334 35.504 22.393 35.386 22.511 35.268C22.629 35.2287 22.7273 35.1697 22.806 35.091C22.806 35.091 22.7273 35.1107 22.57 35.15C22.3733 35.15 22.216 34.9533 22.098 34.56L21.862 33.852C21.744 33.7733 21.6457 33.675 21.567 33.557C21.4097 33.3997 21.331 33.2423 21.331 33.085C21.331 33.0063 21.3507 32.9473 21.39 32.908C21.3507 32.8293 21.2327 32.8293 21.036 32.908L20.741 32.082C20.7017 32.082 20.682 32.1017 20.682 32.141C20.6033 32.2197 20.5443 32.259 20.505 32.259C20.4657 32.2197 20.387 32.2 20.269 32.2L20.151 31.669L19.738 31.492L19.03 30.843C18.9907 30.7643 18.912 30.7053 18.794 30.666C18.7153 30.6267 18.5973 30.5677 18.44 30.489L18.381 30.017C18.3417 29.9383 18.2827 29.8793 18.204 29.84C18.1253 29.7613 18.0467 29.6827 17.968 29.604H17.673C17.6337 29.6433 17.5353 29.663 17.378 29.663C17.3387 29.7023 17.2403 29.604 17.083 29.368C17.0043 29.2107 16.9257 29.0927 16.847 29.014C16.7683 28.896 16.6897 28.8173 16.611 28.778L15.667 28.188L15.195 28.011L15.136 27.48L14.133 26.949L13.897 26.536C13.8183 26.3393 13.661 26.241 13.425 26.241H13.366C13.248 26.123 13.189 26.005 13.189 25.887C12.6383 24.9823 12.3433 24.53 12.304 24.53C12.304 24.53 12.186 24.5693 11.95 24.648H11.891C11.6943 24.648 11.5763 24.5103 11.537 24.235L11.36 23.527C10.9667 23.527 10.711 23.0747 10.593 22.17L10.062 21.934C10.0227 21.6587 9.98333 21.462 9.944 21.344C9.944 21.226 9.944 21.1867 9.944 21.226C9.98333 20.872 10.0227 20.7343 10.062 20.813C10.0227 20.6163 9.90467 20.4787 9.708 20.4C9.59 20.4 9.49167 20.341 9.413 20.223C9.37367 19.7903 9.37367 19.3773 9.413 18.984C9.45233 18.5513 9.49167 18.1187 9.531 17.686C9.531 17.568 9.49167 17.391 9.413 17.155L9.236 16.742L9.413 16.506V16.27C9.413 15.8767 9.49167 15.444 9.649 14.972C9.68833 14.972 9.767 14.972 9.885 14.972C10.003 14.9327 10.1013 14.854 10.18 14.736L9.826 13.969L10.593 12.494C10.9077 11.9433 11.1633 11.668 11.36 11.668L11.714 11.727C11.7533 11.727 11.7927 11.7073 11.832 11.668C11.832 11.6287 11.7927 11.4713 11.714 11.196H11.95C12.0287 11.196 12.068 11.196 12.068 11.196L12.422 10.724C12.5007 10.6453 12.717 10.5667 13.071 10.488L13.307 9.839H13.543C13.5823 9.87833 13.6217 9.91767 13.661 9.957C13.7003 9.99633 13.7397 10.0553 13.779 10.134C14.0543 10.016 14.2903 9.74067 14.487 9.308L15.018 8.895C15.018 8.895 15.0377 8.895 15.077 8.895C15.1557 8.895 15.254 8.87533 15.372 8.836L15.667 8.895C15.785 8.93433 15.8833 8.954 15.962 8.954C16.08 8.954 16.2767 8.81633 16.552 8.541C16.8667 8.305 17.0437 8.187 17.083 8.187L17.614 8.482C17.614 8.6 17.6337 8.69833 17.673 8.777L18.617 8.305C18.735 8.305 19.03 8.482 19.502 8.836C19.5807 8.954 19.5807 9.22933 19.502 9.662L19.679 9.603L19.738 9.367C19.8167 9.32767 19.8953 9.26867 19.974 9.19C20.0527 9.11133 20.151 9.03267 20.269 8.954C20.269 8.87533 20.328 8.75733 20.446 8.6C20.4853 8.63933 20.5247 8.67866 20.564 8.718C20.6427 8.75733 20.7213 8.81633 20.8 8.895C20.9573 9.05233 21.0753 9.131 21.154 9.131C21.2327 9.05233 21.3507 8.99333 21.508 8.954H21.626C21.98 8.954 22.3733 9.09166 22.806 9.367L23.573 9.957L23.632 10.252C23.5533 10.252 23.455 10.311 23.337 10.429C23.455 10.6257 23.632 10.724 23.868 10.724V10.96C23.9467 10.9993 24.0843 10.9797 24.281 10.901C24.3597 11.137 24.5563 11.255 24.871 11.255C24.9497 11.255 25.048 11.3533 25.166 11.55C25.1267 11.668 25.1267 11.8057 25.166 11.963C25.5987 12.7497 25.815 13.1037 25.815 13.025V13.084C25.815 13.202 25.7363 13.4183 25.579 13.733C25.3823 14.205 25.284 14.4607 25.284 14.5C25.284 14.6573 25.52 14.7753 25.992 14.854C26.4247 14.9327 26.6213 15.0113 26.582 15.09L26.877 15.503C26.8377 15.5423 26.818 15.621 26.818 15.739C26.818 15.857 26.8573 16.034 26.936 16.27C27.0933 16.624 27.172 16.8797 27.172 17.037C27.0933 17.1157 26.995 17.214 26.877 17.332C26.759 17.4107 26.6213 17.509 26.464 17.627C26.3853 17.6663 26.2477 17.7057 26.051 17.745C25.8937 17.7843 25.6577 17.8237 25.343 17.863L24.045 18.04C23.9663 18.0793 23.868 18.1187 23.75 18.158C23.632 18.1973 23.514 18.2367 23.396 18.276L22.688 18.04C22.452 18.1187 22.275 18.335 22.157 18.689C21.9997 19.0823 21.8423 19.279 21.685 19.279C21.6457 19.279 21.5867 19.1807 21.508 18.984C21.39 18.7873 21.3113 18.689 21.272 18.689C21.2327 18.689 21.154 18.748 21.036 18.866L20.682 18.925L20.564 18.512C20.564 18.3547 20.623 18.217 20.741 18.099C20.8197 17.9417 20.859 17.8433 20.859 17.804L20.564 17.45C20.7213 17.332 20.859 17.096 20.977 16.742C20.741 16.742 20.446 16.683 20.092 16.565C20.092 16.4863 20.0723 16.388 20.033 16.27C19.9937 16.1127 19.9347 15.9553 19.856 15.798L19.62 15.149C19.4233 14.8737 19.03 14.6573 18.44 14.5L17.909 14.559C17.8303 14.559 17.732 14.5787 17.614 14.618C17.5353 14.618 17.4173 14.6377 17.26 14.677C17.142 14.677 16.9847 14.5 16.788 14.146C16.7093 14.146 16.67 14.2247 16.67 14.382L16.965 14.972C16.5323 15.326 16.1783 15.4833 15.903 15.444V16.329C15.8243 16.4077 15.7653 16.4863 15.726 16.565C15.726 16.6437 15.726 16.742 15.726 16.86C15.7653 16.978 15.8047 17.1157 15.844 17.273C15.9227 17.627 15.9423 17.863 15.903 17.981C15.903 18.0203 15.8833 18.0597 15.844 18.099C15.7653 18.1777 15.726 18.276 15.726 18.394C15.726 18.4727 15.785 18.571 15.903 18.689C15.9817 18.8463 16.021 18.925 16.021 18.925C16.021 18.9643 15.8833 19.1217 15.608 19.397C15.3327 19.6723 15.195 19.8297 15.195 19.869C15.2343 20.6163 15.5293 20.99 16.08 20.99H16.257C16.375 20.99 16.493 20.99 16.611 20.99C16.729 20.9507 16.847 20.931 16.965 20.931C17.1223 20.931 17.2797 20.9507 17.437 20.99C17.5943 20.99 17.7517 21.0097 17.909 21.049V21.639C17.909 21.875 18.1647 22.2093 18.676 22.642C18.7547 22.642 18.853 22.6617 18.971 22.701C19.1283 22.701 19.2857 22.7207 19.443 22.76L19.62 23.114C19.6987 23.1533 19.8363 23.2713 20.033 23.468L20.269 23.94C20.3477 24.058 20.4263 24.117 20.505 24.117C20.8197 24.0777 21.0163 24.0383 21.095 23.999C21.1343 23.999 21.1343 23.999 21.095 23.999C21.213 25.0217 21.2917 25.533 21.331 25.533L21.98 24.766H22.157L22.393 25.415C22.4323 25.4543 22.452 25.474 22.452 25.474C22.4913 25.474 22.511 25.474 22.511 25.474L22.865 25.356C23.0223 25.3953 23.0813 25.592 23.042 25.946L23.632 26.241C23.6713 26.241 23.809 26.3983 24.045 26.713C24.399 26.713 24.6547 26.8507 24.812 27.126C24.8513 27.2047 24.8907 27.303 24.93 27.421C24.9693 27.4997 25.0283 27.6177 25.107 27.775L25.579 28.011C25.579 28.0897 25.579 28.188 25.579 28.306C25.579 28.424 25.5987 28.5813 25.638 28.778C25.638 28.9747 25.6773 29.1123 25.756 29.191C25.7953 29.191 25.933 29.0533 26.169 28.778C26.3657 28.8173 26.5033 29.014 26.582 29.368C26.6607 29.6827 26.7787 29.84 26.936 29.84C27.0147 29.84 27.0737 29.8203 27.113 29.781C27.1523 29.899 27.172 30.0367 27.172 30.194C27.172 30.312 27.172 30.4497 27.172 30.607C27.172 30.725 27.2507 30.843 27.408 30.961C27.5653 31.0397 27.703 31.0593 27.821 31.02L28.057 31.787C28.1357 31.9837 28.0767 32.1213 27.88 32.2C27.9587 32.2787 28.0373 32.2983 28.116 32.259L28.057 32.554L28.352 33.026L28.411 33.498C28.529 33.616 28.6077 33.7143 28.647 33.793C28.8043 33.9897 28.9027 34.6387 28.942 35.74C28.9027 35.858 28.883 36.094 28.883 36.448L28.647 36.802C28.7257 36.9593 28.7847 37.2543 28.824 37.687L28.588 37.923C28.588 38.159 28.3717 38.808 27.939 39.87L27.703 39.693C27.585 39.7323 27.526 39.8503 27.526 40.047C27.526 40.5583 27.5063 40.8337 27.467 40.873L26.877 41.227C26.9163 41.5023 26.9163 41.699 26.877 41.817L25.933 42.584L25.697 42.938C25.4217 43.1347 25.1463 43.3313 24.871 43.528C24.635 43.6853 24.3793 43.8033 24.104 43.882C24.0647 43.882 23.986 43.9017 23.868 43.941C23.7893 43.941 23.6713 43.9607 23.514 44C23.3567 44.1967 23.0813 44.4327 22.688 44.708L22.098 44.531L21.744 44.708C21.6653 44.7867 21.4293 44.826 21.036 44.826H20.092C19.9347 44.8653 19.7773 44.9047 19.62 44.944C19.502 44.9833 19.3447 45.0227 19.148 45.062ZM13.366 15.267C13.4053 15.2277 13.543 15.1687 13.779 15.09L14.251 15.149L14.723 15.267C15.0377 15.1883 15.195 15.0113 15.195 14.736L15.136 14.5L14.31 14.618C14.1133 14.618 13.9167 14.6967 13.72 14.854C13.4447 14.6573 13.248 14.559 13.13 14.559C13.1693 14.6377 13.2087 14.736 13.248 14.854C13.2873 14.972 13.3267 15.1097 13.366 15.267ZM12.245 15.149C12.363 15.2277 12.4613 15.149 12.54 14.913C12.4613 14.8343 12.3827 14.8343 12.304 14.913C12.2253 14.9917 12.2057 15.0703 12.245 15.149ZM24.222 15.326L24.458 15.09C24.458 15.0507 24.3793 15.0507 24.222 15.09V15.326ZM24.989 15.621C25.107 15.6603 25.225 15.6013 25.343 15.444C25.3037 15.4047 25.2447 15.385 25.166 15.385C25.048 15.385 24.989 15.4637 24.989 15.621ZM14.959 16.27C14.959 16.1127 14.9197 16.034 14.841 16.034C14.8017 15.9553 14.723 15.975 14.605 16.093C14.605 16.211 14.723 16.27 14.959 16.27ZM10.77 17.981C10.8093 18.0203 10.829 18.0597 10.829 18.099C10.8683 18.1383 10.9077 18.1777 10.947 18.217C10.947 18.1777 10.947 18.1187 10.947 18.04V17.981H10.77ZM18.912 24.294C18.9907 24.294 19.0693 24.2547 19.148 24.176C19.2267 24.0973 19.1873 24.0187 19.03 23.94C18.9513 24.0187 18.912 24.1367 18.912 24.294ZM14.31 24.294C14.31 24.2153 14.2707 24.1367 14.192 24.058C14.1133 23.9793 14.0347 24.0187 13.956 24.176C13.956 24.294 14.074 24.3333 14.31 24.294ZM22.688 31.787C22.7667 31.787 22.8453 31.7477 22.924 31.669C22.924 31.551 22.8847 31.4527 22.806 31.374C22.688 31.4527 22.6487 31.5903 22.688 31.787ZM25.166 32.613C25.166 32.5343 25.1267 32.4557 25.048 32.377C24.93 32.2983 24.8317 32.3377 24.753 32.495C24.8317 32.613 24.9693 32.6523 25.166 32.613ZM26.169 34.855C26.169 34.737 26.11 34.6583 25.992 34.619C25.9133 34.619 25.8347 34.6583 25.756 34.737C25.8347 34.855 25.9723 34.8943 26.169 34.855ZM22.806 35.032C22.8453 35.0713 22.8453 35.091 22.806 35.091C22.8453 35.0517 22.865 35.032 22.865 35.032H22.806ZM13.897 36.33L14.133 36.153C14.133 36.153 14.0937 36.1137 14.015 36.035C14.015 36.035 13.9953 36.0743 13.956 36.153C13.9167 36.2317 13.897 36.2907 13.897 36.33ZM15.962 42.997L16.198 42.938C16.2373 42.8987 16.375 42.879 16.611 42.879L17.319 42.053C17.2403 41.9743 17.1617 41.8563 17.083 41.699C17.0043 41.5023 16.9257 41.286 16.847 41.05V40.873C16.847 40.6763 16.906 40.519 17.024 40.401L16.434 40.46L16.788 41.64C16.788 41.9547 16.7487 42.0727 16.67 41.994L16.611 41.935C16.611 41.935 16.5717 41.935 16.493 41.935C16.4143 42.053 16.198 42.289 15.844 42.643C15.9227 42.7217 15.962 42.8397 15.962 42.997ZM18.912 41.05C18.912 41.0107 18.853 40.932 18.735 40.814C18.735 40.814 18.6957 40.8533 18.617 40.932C18.617 40.932 18.6563 40.9517 18.735 40.991C18.8137 41.0303 18.8727 41.05 18.912 41.05ZM15.018 41.817C15.018 41.7383 14.9787 41.6597 14.9 41.581C14.8607 41.5023 14.782 41.522 14.664 41.64C14.664 41.758 14.782 41.817 15.018 41.817ZM19.03 41.935C19.0693 41.8563 19.0497 41.7777 18.971 41.699C18.9317 41.6203 18.8333 41.6597 18.676 41.817C18.7547 41.935 18.8727 41.9743 19.03 41.935ZM37.9736 44.472L37.2066 44.118C37.0099 44.0393 36.7543 43.9803 36.4396 43.941C36.4789 43.9803 36.2036 44.059 35.6136 44.177H35.0826L34.6696 44.059C34.3549 43.9803 34.1976 43.941 34.1976 43.941L33.9616 44C33.8829 44.0393 33.8043 44.059 33.7256 44.059L33.3126 43.941C33.2339 43.941 33.1553 43.9607 33.0766 44C32.9979 44 32.9193 44.0197 32.8406 44.059C32.6046 44.1377 32.3883 44.177 32.1916 44.177C31.6803 44.0983 31.4443 43.8033 31.4836 43.292L31.8376 41.463C31.7983 41.3057 31.7786 41.168 31.7786 41.05C31.7786 40.932 31.7786 40.814 31.7786 40.696C31.7786 40.6173 31.8966 40.46 32.1326 40.224C31.9753 39.87 31.8966 39.5947 31.8966 39.398C31.9359 39.3193 31.9753 39.2407 32.0146 39.162C32.0539 39.0833 32.0933 38.9653 32.1326 38.808C32.0933 38.69 32.0736 38.454 32.0736 38.1C32.1916 37.982 32.2703 37.864 32.3096 37.746L32.1916 37.215C32.2703 37.1363 32.3293 37.0183 32.3686 36.861V36.507C32.4473 36.389 32.5063 36.271 32.5456 36.153C32.6243 35.9957 32.7029 35.8383 32.7816 35.681L32.5456 34.796C32.5063 34.796 32.4473 34.737 32.3686 34.619L32.2506 34.383C32.3293 34.147 32.5063 33.97 32.7816 33.852L32.8996 34.442C33.0569 34.7173 33.2143 34.855 33.3716 34.855C33.4896 34.855 33.6273 34.796 33.7846 34.678V34.442L33.4306 34.147C33.4306 33.8323 33.4109 33.6357 33.3716 33.557C33.3323 33.2817 33.1749 33.144 32.8996 33.144C32.7816 33.0653 32.6636 33.1243 32.5456 33.321C32.6636 33.1243 32.7619 32.8687 32.8406 32.554V32.436C32.8406 32.3573 32.8406 32.2787 32.8406 32.2C32.8406 32.082 32.8209 31.9443 32.7816 31.787V31.61C32.7816 31.5313 32.8209 31.374 32.8996 31.138L32.9586 31.02L32.8406 30.607C32.9586 30.489 33.0766 30.4103 33.1946 30.371L32.8996 28.778C32.8603 28.66 32.8406 28.542 32.8406 28.424C32.8406 28.306 32.8406 28.188 32.8406 28.07C32.8406 27.8733 32.8603 27.6373 32.8996 27.362C32.9783 27.0867 33.0373 26.772 33.0766 26.418L33.3126 24.766C33.4306 24.6873 33.5289 24.5693 33.6076 24.412L33.4306 23.468L33.6076 21.521C33.6469 21.3243 33.6863 21.1277 33.7256 20.931C33.7649 20.7343 33.8239 20.5573 33.9026 20.4C34.0993 20.3213 34.2369 20.1837 34.3156 19.987C34.2763 19.8297 34.0993 19.751 33.7846 19.751C33.8239 19.7117 33.8436 19.6527 33.8436 19.574L33.7846 19.338C33.8239 18.866 33.8436 18.63 33.8436 18.63L33.7846 18.512C33.7846 18.3547 33.9616 18.2563 34.3156 18.217L34.8466 18.158C35.3973 17.6073 35.6726 17.273 35.6726 17.155C35.6726 16.9583 35.5743 16.86 35.3776 16.86H35.2596C35.0629 16.86 34.8073 16.9387 34.4926 17.096C34.4533 17.096 34.3943 17.037 34.3156 16.919L34.3746 15.916C34.4139 15.8373 34.4336 15.6407 34.4336 15.326C34.3943 15.2473 34.3549 15.1687 34.3156 15.09C34.2763 15.0113 34.2173 14.9327 34.1386 14.854H33.7256L33.1356 14.441C33.0963 14.4017 33.0373 14.382 32.9586 14.382C32.8799 14.382 32.8013 14.3623 32.7226 14.323L31.6016 14.559C31.5229 14.5197 31.4246 14.5 31.3066 14.5C31.2279 14.4607 31.1099 14.4213 30.9526 14.382C30.8346 14.4213 30.5986 14.441 30.2446 14.441L29.7136 14.323L28.9466 14.5C28.5533 14.4607 28.3763 14.264 28.4156 13.91C28.4943 13.8707 28.5533 13.8117 28.5926 13.733C28.6713 13.6543 28.7499 13.5757 28.8286 13.497L28.7696 13.084L28.8876 12.612V12.435C28.8876 12.2777 28.8679 12.1203 28.8286 11.963L29.1236 11.727L29.2416 10.134C29.2416 10.0947 29.1629 9.99633 29.0056 9.839C28.9269 9.76033 28.9663 9.62266 29.1236 9.426C29.1236 9.38667 29.0843 9.28833 29.0056 9.131C29.0843 8.423 29.2219 8.069 29.4186 8.069C29.4973 8.069 29.6153 8.128 29.7726 8.246C29.9693 8.364 30.0676 8.423 30.0676 8.423C30.3036 8.26566 30.5003 8.16733 30.6576 8.128L31.4246 8.423C31.4246 8.541 31.4246 8.69833 31.4246 8.895C31.4246 9.05233 31.4443 9.22933 31.4836 9.426L31.8376 9.839C32.0736 9.721 32.1916 9.603 32.1916 9.485L32.0736 9.249C32.0343 9.20966 32.0146 9.15067 32.0146 9.072C32.0146 8.99333 32.0539 8.93433 32.1326 8.895C32.2113 8.81633 32.2703 8.718 32.3096 8.6L32.6046 8.01C32.6833 8.08866 32.8013 8.20666 32.9586 8.364C33.1159 8.52133 33.2733 8.69833 33.4306 8.895H33.5486C33.7453 8.895 33.8633 8.836 33.9026 8.718C33.9419 8.56066 34.0009 8.482 34.0796 8.482C34.1976 8.44266 34.3353 8.423 34.4926 8.423C34.6499 8.38366 34.8073 8.38366 34.9646 8.423L35.3776 8.6C35.5349 8.63933 35.6333 8.69833 35.6726 8.777C35.7513 8.81633 35.8103 8.836 35.8496 8.836C35.8889 8.836 36.0266 8.67867 36.2626 8.364C36.4593 8.44266 36.5183 8.58033 36.4396 8.777C36.4003 8.93433 36.4396 9.09166 36.5576 9.249L36.9706 9.072C37.0099 9.11133 37.0493 9.131 37.0886 9.131C37.1279 9.131 37.1673 9.15067 37.2066 9.19C37.2853 9.308 37.4229 9.50467 37.6196 9.78H37.7966L37.9736 9.19C38.0523 8.954 38.1506 8.836 38.2686 8.836C38.4259 8.836 38.6226 8.895 38.8586 9.013L39.0356 9.367L39.2716 9.426V8.954L39.8026 9.013C40.0386 9.013 40.2943 9.09166 40.5696 9.249L40.8646 9.603L41.8676 9.131C41.9856 9.20966 42.1233 9.28833 42.2806 9.367C42.3199 9.32767 42.4576 9.26867 42.6936 9.19C42.8116 9.19 43.0476 9.308 43.4016 9.544L43.8736 9.249H44.1096C44.1096 9.28833 44.1489 9.34733 44.2276 9.426V9.544C44.2276 9.70133 44.3063 9.85866 44.4636 10.016C44.6603 10.0553 44.7783 9.99633 44.8176 9.839L44.9946 9.426C45.1913 9.308 45.4076 9.249 45.6436 9.249C45.8403 9.28833 45.9779 9.34733 46.0566 9.426C46.1353 9.544 46.1746 9.603 46.1746 9.603H46.3516C46.4303 9.603 46.5286 9.603 46.6466 9.603C46.8039 9.56366 46.9809 9.52433 47.1776 9.485C47.2563 9.56367 47.2956 9.662 47.2956 9.78C47.2169 10.0947 47.1383 10.37 47.0596 10.606C47.1383 10.8813 47.1383 11.1173 47.0596 11.314C46.8629 11.5107 46.7843 11.727 46.8236 11.963L46.8826 12.258C46.9219 12.376 46.9416 12.494 46.9416 12.612C46.9416 12.848 46.8039 13.0447 46.5286 13.202V13.261C46.5286 13.4577 46.4303 13.6543 46.2336 13.851C46.3516 14.1263 46.4106 14.4213 46.4106 14.736C46.4893 14.7753 46.5679 14.8147 46.6466 14.854C46.7253 14.8933 46.8039 14.9523 46.8826 15.031L46.8236 15.68C46.5483 15.8767 46.3123 15.975 46.1156 15.975L45.8206 15.739C45.7419 15.6997 45.6436 15.68 45.5256 15.68C45.4469 15.68 45.3486 15.6603 45.2306 15.621H44.9356C44.8569 15.621 44.7979 15.6407 44.7586 15.68C44.7193 15.68 44.6799 15.68 44.6406 15.68C44.4439 15.68 44.3259 15.6013 44.2866 15.444C44.2079 15.3653 44.1096 15.4243 43.9916 15.621L43.2836 15.562C43.0869 15.5227 42.9099 15.503 42.7526 15.503C42.6346 15.503 42.5559 15.4833 42.5166 15.444C42.3593 15.4047 42.2216 15.1293 42.1036 14.618L41.9266 14.559V14.854L41.4546 15.326C41.3759 15.3653 41.2776 15.4047 41.1596 15.444C41.0809 15.4833 40.9629 15.5423 40.8056 15.621L40.6876 16.801H40.5106C40.2353 16.801 40.0386 16.9387 39.9206 17.214C40.0386 17.2927 40.1566 17.4107 40.2746 17.568C40.4319 17.686 40.5893 17.8433 40.7466 18.04C40.8253 18.1973 40.8449 18.3547 40.8056 18.512C40.7663 18.5513 40.7466 18.63 40.7466 18.748C40.7466 18.866 40.7269 19.0233 40.6876 19.22C40.5303 19.2987 40.4123 19.397 40.3336 19.515L40.5106 20.282V20.813C40.4319 21.0883 40.3139 21.3637 40.1566 21.639C40.1173 21.5603 39.9796 21.4423 39.7436 21.285C39.4683 21.285 39.1929 21.3637 38.9176 21.521C38.6423 22.1503 38.6226 22.465 38.8586 22.465L40.0976 22.406C40.0976 22.524 40.1173 22.6617 40.1566 22.819C40.1959 22.8583 40.1763 22.9567 40.0976 23.114L40.2156 23.35C40.2549 23.468 40.2549 23.5467 40.2156 23.586L40.0976 23.881C40.0583 23.9597 40.0189 24.0187 39.9796 24.058C39.9403 24.0973 39.9206 24.1367 39.9206 24.176C39.9206 24.412 39.9993 24.53 40.1566 24.53V24.884C40.1566 25.3167 40.0779 25.71 39.9206 26.064L39.9796 26.949C39.9403 26.9883 39.9009 27.0277 39.8616 27.067C39.8223 27.1063 39.7829 27.1653 39.7436 27.244L39.8026 27.421C39.8026 27.4603 39.8026 27.4997 39.8026 27.539C39.8419 27.539 39.8616 27.5587 39.8616 27.598L39.9206 28.247L39.5666 29.132C39.5273 29.25 39.4289 29.309 39.2716 29.309C39.0749 29.2697 38.9373 29.25 38.8586 29.25C38.8193 29.2893 38.7799 29.3877 38.7406 29.545C38.7406 29.7023 38.8783 29.8007 39.1536 29.84L39.7436 30.017V30.253L39.4486 30.607C39.4093 30.6463 39.3503 30.8627 39.2716 31.256C39.1143 31.2953 39.0356 31.4133 39.0356 31.61C39.0356 32.0033 39.0159 32.2197 38.9766 32.259L39.2716 32.436C39.3109 32.554 39.3306 32.7113 39.3306 32.908C39.3306 33.3013 39.2323 33.5963 39.0356 33.793C38.8389 33.9897 38.7406 34.1077 38.7406 34.147L38.8586 34.56C38.9373 34.7173 38.9176 34.8747 38.7996 35.032C38.9176 35.504 38.9569 35.8383 38.9176 36.035C38.8389 36.507 38.7799 36.9003 38.7406 37.215C38.7013 37.4903 38.6816 37.687 38.6816 37.805L38.7996 38.041C38.8783 38.1983 38.8783 38.3163 38.7996 38.395C38.7996 38.5523 38.7209 38.7097 38.5636 38.867C38.4849 38.9457 38.4063 39.0243 38.3276 39.103C38.2883 39.1817 38.2489 39.2407 38.2096 39.28L38.3276 39.516C38.2883 39.5553 38.2686 39.6733 38.2686 39.87C38.3866 40.3027 38.4653 40.519 38.5046 40.519C38.5833 40.519 38.4849 40.696 38.2096 41.05C38.0916 40.932 37.9146 40.873 37.6786 40.873C37.5213 40.873 37.2263 40.932 36.7936 41.05C36.7936 40.7747 36.6953 40.637 36.4986 40.637C36.3413 40.637 36.2429 40.7747 36.2036 41.05V41.109C36.2036 41.6203 36.5969 41.9153 37.3836 41.994C37.5016 41.994 37.5999 41.9547 37.6786 41.876C37.8359 41.758 37.8556 41.6203 37.7376 41.463C37.8163 41.581 37.8949 41.699 37.9736 41.817C38.0916 41.935 38.2293 42.053 38.3866 42.171C38.4259 42.2103 38.4456 42.3087 38.4456 42.466C38.4456 42.6233 38.4259 42.8593 38.3866 43.174C38.3473 43.4887 38.2883 43.882 38.2096 44.354C38.1309 44.4327 38.0523 44.472 37.9736 44.472ZM31.5426 10.842C31.5819 10.7633 31.5623 10.6847 31.4836 10.606C31.4443 10.5667 31.3656 10.5667 31.2476 10.606C31.2476 10.6847 31.3459 10.7633 31.5426 10.842ZM44.3456 11.668C44.3849 11.5893 44.4243 11.5107 44.4636 11.432C44.5423 11.314 44.6013 11.1763 44.6406 11.019C44.6799 10.7437 44.5816 10.606 44.3456 10.606C44.2669 10.606 44.1096 10.6453 43.8736 10.724L44.3456 11.668ZM42.8116 12.022C42.8509 11.9827 42.9493 11.9237 43.1066 11.845C43.0673 11.8057 42.9689 11.8057 42.8116 11.845V12.022ZM32.3096 12.671H32.3686C32.4866 12.671 32.6636 12.612 32.8996 12.494L32.9586 12.258C32.8799 12.1793 32.7816 12.1203 32.6636 12.081C32.5456 12.081 32.4669 12.1597 32.4276 12.317L32.3096 12.671ZM43.5196 12.494C43.6376 12.5333 43.7556 12.4743 43.8736 12.317C43.8343 12.2777 43.7753 12.258 43.6966 12.258C43.5786 12.258 43.5196 12.3367 43.5196 12.494ZM35.2006 12.966C35.3186 13.0053 35.4366 12.9463 35.5546 12.789C35.4759 12.7103 35.4169 12.671 35.3776 12.671C35.2596 12.671 35.2006 12.7693 35.2006 12.966ZM35.0826 23.114V22.878C35.0433 22.8387 34.9843 22.819 34.9056 22.819L35.0826 23.114ZM35.2596 26.064C35.2989 26.0247 35.3186 25.9657 35.3186 25.887C35.3186 25.769 35.2399 25.71 35.0826 25.71C35.0433 25.828 35.1023 25.946 35.2596 26.064ZM37.0296 29.84C37.0689 29.7613 37.0493 29.6827 36.9706 29.604C36.8919 29.5253 36.7936 29.5253 36.6756 29.604C36.6756 29.6827 36.7936 29.7613 37.0296 29.84ZM34.6696 30.607C34.7483 30.6857 34.8663 30.6463 35.0236 30.489C34.9449 30.4103 34.8859 30.371 34.8466 30.371C34.7286 30.371 34.6696 30.4497 34.6696 30.607ZM37.2656 34.029C37.3443 34.0683 37.4623 34.0093 37.6196 33.852C37.5803 33.8127 37.5016 33.793 37.3836 33.793C37.2656 33.793 37.2263 33.8717 37.2656 34.029ZM36.3806 39.634C36.5773 39.634 36.6953 39.516 36.7346 39.28C36.7346 39.162 36.7149 39.0833 36.6756 39.044L36.3216 38.985C36.2429 38.8277 36.1839 38.7293 36.1446 38.69L35.9086 38.631L35.7316 39.044C35.7316 39.3587 35.9479 39.5553 36.3806 39.634ZM33.0766 42.82C33.1159 42.82 33.0766 42.7413 32.9586 42.584C32.9193 42.584 32.8603 42.6233 32.7816 42.702L33.0766 42.82Z" fill="white"/>
</svg>
